<svg width="590" height="428" viewBox="0 0 590 428" fill="none" xmlns="http://www.w3.org/2000/svg">
<path d="M67.4221 151.308C69.2615 151.308 70.8433 151.97 72.1676 153.294C73.5655 154.545 74.2644 156.127 74.2644 158.04V221.938C74.2644 223.851 73.6391 225.47 72.3883 226.794C71.1376 228.045 69.4822 228.67 67.4221 228.67C65.3621 228.67 63.6699 228.045 62.3456 226.794C61.0948 225.543 60.4694 223.925 60.4694 221.938V177.463L42.26 205.274C41.5243 206.157 40.6782 206.893 39.7218 207.481C38.7653 207.996 37.7721 208.217 36.742 208.143C35.7856 208.217 34.8291 207.996 33.8727 207.481C32.9162 206.893 32.0701 206.157 31.3344 205.274L13.125 176.47V221.938C13.125 223.925 12.5364 225.543 11.3592 226.794C10.1821 228.045 8.63702 228.67 6.72411 228.67C4.88478 228.67 3.37653 228.045 2.19935 226.794C1.02218 225.47 0.433594 223.851 0.433594 221.938V158.04C0.433594 156.201 1.09575 154.619 2.42007 153.294C3.81797 151.97 5.47337 151.308 7.38627 151.308C8.48987 151.308 9.59347 151.602 10.6971 152.191C11.8007 152.706 12.6468 153.405 13.2354 154.288L37.2938 191.258L62.0145 154.288C62.6031 153.405 63.3756 152.706 64.332 152.191C65.3621 151.602 66.3921 151.308 67.4221 151.308Z" fill="black"/>
<path d="M146.036 197.77C145.962 199.535 145.263 200.97 143.939 202.074C142.614 203.177 141.069 203.729 139.304 203.729H102.885C103.768 208.07 105.791 211.491 108.955 213.992C112.118 216.42 115.687 217.634 119.659 217.634C122.676 217.634 125.03 217.377 126.723 216.862C128.415 216.273 129.739 215.685 130.695 215.096C131.725 214.434 132.424 213.992 132.792 213.772C134.117 213.11 135.367 212.778 136.545 212.778C138.09 212.778 139.414 213.33 140.518 214.434C141.621 215.537 142.173 216.825 142.173 218.296C142.173 220.283 141.143 222.085 139.083 223.704C137.023 225.396 134.264 226.831 130.806 228.008C127.348 229.185 123.853 229.774 120.322 229.774C114.141 229.774 108.734 228.486 104.099 225.911C99.5372 223.336 96.0056 219.805 93.5041 215.317C91.0026 210.755 89.7519 205.642 89.7519 199.977C89.7519 193.649 91.0762 188.095 93.7249 183.312C96.3735 178.53 99.8682 174.888 104.209 172.387C108.55 169.812 113.185 168.524 118.114 168.524C122.97 168.524 127.532 169.848 131.799 172.497C136.14 175.146 139.598 178.714 142.173 183.202C144.748 187.69 146.036 192.546 146.036 197.77ZM118.114 180.664C109.58 180.664 104.54 184.673 102.995 192.693H131.909V191.92C131.615 188.83 130.107 186.182 127.385 183.975C124.662 181.767 121.572 180.664 118.114 180.664Z" fill="black"/>
<path d="M208.177 147.004C210.09 147.004 211.672 147.629 212.922 148.88C214.173 150.131 214.798 151.749 214.798 153.736V221.938C214.798 223.851 214.173 225.47 212.922 226.794C211.672 228.045 210.09 228.67 208.177 228.67C206.264 228.67 204.682 228.045 203.431 226.794C202.254 225.543 201.629 223.962 201.555 222.049C199.716 224.182 197.214 226.022 194.051 227.567C190.961 229.038 187.687 229.774 184.229 229.774C179.152 229.774 174.554 228.486 170.434 225.911C166.314 223.263 163.04 219.621 160.612 214.986C158.257 210.351 157.08 205.09 157.08 199.204C157.08 193.318 158.257 188.058 160.612 183.423C162.966 178.714 166.166 175.072 170.213 172.497C174.333 169.848 178.858 168.524 183.787 168.524C187.319 168.524 190.63 169.186 193.72 170.511C196.81 171.761 199.422 173.38 201.555 175.366V153.736C201.555 151.823 202.181 150.241 203.431 148.99C204.682 147.666 206.264 147.004 208.177 147.004ZM185.884 217.634C190.666 217.634 194.566 215.905 197.582 212.447C200.599 208.916 202.107 204.501 202.107 199.204C202.107 193.907 200.599 189.493 197.582 185.961C194.566 182.429 190.666 180.664 185.884 180.664C181.175 180.664 177.313 182.429 174.296 185.961C171.28 189.493 169.772 193.907 169.772 199.204C169.772 204.501 171.243 208.916 174.186 212.447C177.202 215.905 181.102 217.634 185.884 217.634Z" fill="black"/>
<path d="M244.932 221.938C244.932 223.851 244.307 225.47 243.056 226.794C241.805 228.045 240.223 228.67 238.31 228.67C236.397 228.67 234.816 228.045 233.565 226.794C232.314 225.47 231.689 223.851 231.689 221.938V176.36C231.689 174.447 232.314 172.865 233.565 171.614C234.816 170.29 236.397 169.628 238.31 169.628C240.223 169.628 241.805 170.29 243.056 171.614C244.307 172.865 244.932 174.447 244.932 176.36V221.938ZM238.2 162.454C235.698 162.454 233.933 162.05 232.903 161.24C231.873 160.431 231.358 158.996 231.358 156.936V154.839C231.358 152.779 231.909 151.345 233.013 150.535C234.117 149.726 235.882 149.321 238.31 149.321C240.885 149.321 242.688 149.726 243.718 150.535C244.748 151.345 245.263 152.779 245.263 154.839V156.936C245.263 159.07 244.711 160.541 243.608 161.351C242.578 162.086 240.775 162.454 238.2 162.454Z" fill="black"/>
<path d="M320.344 151.418C321.374 151.418 322.183 151.749 322.772 152.412C323.434 153 323.765 153.809 323.765 154.839V225.249C323.692 226.279 323.324 227.125 322.662 227.787C321.999 228.376 321.19 228.67 320.234 228.67C319.277 228.67 318.468 228.339 317.806 227.677C317.144 227.015 316.812 226.206 316.812 225.249V192.362H272.006V225.249C271.933 226.206 271.565 227.015 270.903 227.677C270.241 228.339 269.431 228.67 268.475 228.67C267.445 228.67 266.599 228.376 265.936 227.787C265.348 227.125 265.054 226.279 265.054 225.249V154.839C265.054 153.809 265.385 153 266.047 152.412C266.709 151.749 267.555 151.418 268.585 151.418C269.542 151.418 270.351 151.749 271.013 152.412C271.675 153.074 272.006 153.883 272.006 154.839V185.961H316.812V154.839C316.812 153.883 317.144 153.074 317.806 152.412C318.541 151.749 319.388 151.418 320.344 151.418Z" fill="black"/>
<path d="M388.296 172.607C389.252 172.607 390.025 172.939 390.613 173.601C391.275 174.189 391.606 174.962 391.606 175.918V207.04C391.606 214.25 389.583 219.805 385.537 223.704C381.49 227.53 375.898 229.443 368.762 229.443C361.699 229.443 356.144 227.53 352.097 223.704C348.125 219.805 346.138 214.25 346.138 207.04V175.918C346.138 174.962 346.432 174.189 347.021 173.601C347.683 172.939 348.492 172.607 349.449 172.607C350.405 172.607 351.178 172.939 351.766 173.601C352.429 174.189 352.76 174.962 352.76 175.918V207.04C352.76 212.337 354.158 216.384 356.953 219.179C359.749 221.902 363.685 223.263 368.762 223.263C373.912 223.263 377.885 221.902 380.681 219.179C383.55 216.384 384.985 212.337 384.985 207.04V175.918C384.985 174.962 385.279 174.189 385.868 173.601C386.53 172.939 387.339 172.607 388.296 172.607Z" fill="black"/>
<path d="M439.098 170.952C443.954 170.952 448.368 172.203 452.341 174.704C456.314 177.206 459.404 180.7 461.612 185.188C463.892 189.603 465.033 194.606 465.033 200.197C465.033 205.715 463.892 210.755 461.612 215.317C459.404 219.805 456.314 223.336 452.341 225.911C448.442 228.486 444.064 229.774 439.209 229.774C435.015 229.774 431.115 228.744 427.51 226.684C423.979 224.55 421.11 221.754 418.902 218.296V225.58C418.902 226.537 418.571 227.346 417.909 228.008C417.321 228.67 416.548 229.001 415.592 229.001C414.635 229.001 413.826 228.67 413.164 228.008C412.575 227.346 412.281 226.537 412.281 225.58V150.425C412.281 149.469 412.575 148.696 413.164 148.108C413.826 147.445 414.635 147.114 415.592 147.114C416.548 147.114 417.321 147.445 417.909 148.108C418.571 148.696 418.902 149.469 418.902 150.425V182.981C420.889 179.376 423.685 176.47 427.29 174.263C430.895 172.056 434.831 170.952 439.098 170.952ZM438.546 223.594C442.372 223.594 445.793 222.564 448.81 220.504C451.9 218.444 454.291 215.648 455.983 212.116C457.749 208.511 458.632 204.538 458.632 200.197C458.632 195.783 457.749 191.847 455.983 188.389C454.291 184.857 451.9 182.098 448.81 180.112C445.793 178.125 442.372 177.132 438.546 177.132C434.647 177.132 431.152 178.125 428.062 180.112C424.972 182.025 422.581 184.747 420.889 188.279C419.197 191.81 418.351 195.783 418.351 200.197C418.351 204.612 419.197 208.622 420.889 212.227C422.655 215.758 425.046 218.554 428.062 220.614C431.152 222.601 434.647 223.594 438.546 223.594Z" fill="black"/>
<path fill-rule="evenodd" clip-rule="evenodd" d="M453.915 15.9141V29.0579C453.915 29.8401 453.898 30.5844 453.885 31.1388L453.885 31.1432C453.871 31.7517 453.862 32.1543 453.86 32.5395C453.842 36.9551 454.976 50.9753 467.608 59.9842C481.466 69.8671 521.416 99.3116 557.431 125.935C600.018 157.418 600.912 220.737 559.351 253.49L463.373 329.13C457.227 333.974 453.64 341.368 453.64 349.193V427.397H421.016V349.193C421.016 331.374 429.184 314.537 443.18 303.507L539.158 227.867C563.853 208.405 563.285 170.834 538.037 152.17C501.896 125.453 462.236 96.2234 448.666 86.5456C422.832 68.1219 421.204 40.1446 421.236 32.403C421.239 31.7015 421.255 31.0179 421.267 30.5026C421.268 30.4642 421.269 30.4268 421.27 30.3903C421.283 29.808 421.291 29.4156 421.291 29.0579V15.9141H453.915Z" fill="url(#paint0_linear)"/>
<path fill-rule="evenodd" clip-rule="evenodd" d="M453.889 0.445651C453.889 0.445425 453.889 0.445312 470.201 0.445312C486.513 0.445312 486.513 0.445425 486.513 0.445651V51.9503C486.513 53.6127 487.489 58.1919 491.112 66.2726C494.49 73.8063 499.385 82.7116 505.252 92.3352C516.963 111.546 531.78 132.381 543.921 148.715C560.768 171.378 562.249 202.61 546.102 226.482L491.923 306.582C488.238 312.03 486.269 318.456 486.269 325.033V402.298H453.645V325.033C453.645 311.941 457.565 299.149 464.9 288.304L519.08 208.204C527.137 196.291 526.665 180.186 517.739 168.177C505.369 151.537 489.871 129.781 477.396 109.317C471.169 99.1026 465.503 88.899 461.343 79.6187C457.428 70.8856 453.889 60.9458 453.889 51.9503V0.445651Z" fill="url(#paint1_linear)" style="mix-blend-mode:multiply"/>
<defs>
<linearGradient id="paint0_linear" x1="421.016" y1="221.656" x2="825.743" y2="221.648" gradientUnits="userSpaceOnUse">
<stop stop-color="#FF585D"/>
<stop offset="1" stop-color="#983639"/>
</linearGradient>
<linearGradient id="paint1_linear" x1="510.29" y1="4.79443" x2="510.29" y2="402.2" gradientUnits="userSpaceOnUse">
<stop offset="0.046875" stop-color="#389BC4"/>
<stop offset="0.848958" stop-color="#8BC07C"/>
</linearGradient>
</defs>
</svg>
