<svg width="400" height="400" viewBox="0 0 400 400" fill="none" xmlns="http://www.w3.org/2000/svg">
<path d="M0 0H400V400H0V0Z" fill="#232323"/>
<path d="M202 200H200V202H202V200Z" fill="black"/>
<path d="M400 240.468V323.75C391.041 333.958 384.219 345.833 379.532 359.374C375.052 372.395 372.969 385.937 373.282 400H366.406V390.938C366.406 387.395 366.666 384.374 367.186 381.874L368.438 375.156L369.844 368.594L374.374 353.282C376.146 347.655 378.021 342.759 380 338.594C381.041 336.302 382.916 333.333 385.624 329.688L391.406 321.094L393.126 315.938L393.75 310.468C393.958 303.801 393.593 294.999 392.656 284.062L387.968 242.188C386.197 225.417 385.156 211.355 384.844 200H398.438C398.334 208.229 398.386 215 398.594 220.312C398.802 227.708 399.271 234.427 400 240.468ZM400 339.532V380.468C399.375 383.281 398.906 386.511 398.594 390.156L398.126 400H385L384.844 382.812C384.844 375.937 385.209 370.261 385.938 365.782C386.563 361.719 388.49 357.188 391.718 352.188L400 339.532ZM351.094 400L351.874 383.28L353.75 366.562C355.105 357.291 356.355 350.104 357.5 345C359.271 337.187 361.511 330.311 364.22 324.374L369.22 312.344L372.344 299.688L373.438 289.688C373.542 285.937 373.073 282.708 372.032 280L358.908 241.876C356.407 233.751 354.583 226.875 353.438 221.25C351.875 213.646 351.094 206.563 351.094 200H358.438C358.542 211.355 360.157 222.709 363.282 234.062C366.406 245.105 370.885 255.626 376.718 265.626L372.658 243.594L368.906 221.562L367.186 210.938L366.252 200H373.284L373.752 209.062L374.846 218.126L379.846 250.626L384.69 283.282C386.043 294.115 386.147 304.532 385.002 314.532L383.752 321.092C383.023 323.489 381.981 325.469 380.628 327.032L376.878 330.938C375.419 332.501 374.325 333.959 373.596 335.312C371.409 338.959 369.483 344.167 367.816 350.938L362.97 367.032C361.095 371.719 359.845 377.135 359.22 383.282C358.7 387.449 358.44 393.021 358.44 400H351.094ZM345.628 400H329.06C326.247 386.771 325.101 374.219 325.624 362.344C326.144 355.781 327.341 350.313 329.216 345.938L335.156 330.938C337.029 325.313 338.175 320.053 338.592 315.158C339.008 311.511 338.748 307.969 337.812 304.532C336.873 300.989 335.31 297.76 333.122 294.844C329.998 290.677 326.145 286.459 321.562 282.188L319.686 287.188L317.966 292.5C314.842 301.563 311.561 309.531 308.122 316.406C303.955 324.739 299.269 331.979 294.062 338.126C292.082 341.146 290.363 344.687 288.904 348.75C287.863 351.875 286.873 355.729 285.936 360.312C283.645 371.771 282.5 385 282.5 400H269.532L270.156 375.468C270.676 366.511 271.769 358.334 273.436 350.938C275.729 341.146 278.959 333.541 283.124 328.124L292.5 318.124C295.833 314.167 298.437 309.583 300.312 304.374C302.083 299.479 303.073 294.323 303.282 288.906C303.49 282.031 302.917 273.698 301.562 263.906L297.812 239.22C296.041 224.428 295.417 211.355 295.94 200H316.096C315.263 216.251 316.513 230.991 319.846 244.22C323.075 256.511 328.752 267.344 336.876 276.72L346.876 287.188C350.939 291.459 353.855 295.313 355.626 298.75C359.169 305.313 359.794 313.49 357.502 323.282C356.147 329.427 353.543 336.667 349.69 345C348.127 348.437 346.929 352.344 346.096 356.72C345.367 360.053 344.846 364.115 344.534 368.906C344.013 378.594 344.377 388.959 345.626 400H345.628ZM316.096 400H295.938V378.906C296.354 370.99 297.499 364.063 299.374 358.126C305.103 341.25 311.875 326.041 319.688 312.5L323.282 306.406L327.5 300.782C329.167 307.031 328.437 314.739 325.312 323.906C317.812 346.51 314.739 371.875 316.092 400H316.096ZM257.5 400H235.938L236.406 388.438L237.344 376.874L242.5 331.72L247.344 286.564C248.907 270.523 247.657 255.991 243.594 242.97C241.302 247.033 239.323 252.033 237.656 257.97L233.594 273.596C232.969 275.888 232.604 278.701 232.5 282.034L232.656 290.47L231.562 312.658L227.968 333.596C225.989 343.281 224.74 350.26 224.22 354.532C223.7 358.177 223.492 362.448 223.596 367.344L224.064 380.156L224.844 390.156C225.157 393.907 225.627 397.188 226.252 400H211.562V362.5L211.406 350.468C205.886 359.219 202.084 368.959 200 379.688V338.908C207.813 324.948 212.761 309.843 214.844 293.594C216.511 281.407 216.563 265.834 215 246.874L212.812 223.44C212.084 214.272 211.667 206.459 211.562 200H226.25L229.062 222.656L231.25 245.312C232.917 242.083 234.115 238.073 234.844 233.282L236.094 220.782L236.25 210.468L235.938 200H257.658C257.761 203.959 258.229 208.594 259.062 213.906L261.406 227.5L264.686 249.688C265.521 257.917 265.625 265.365 265 272.032C264.271 277.761 262.917 284.219 260.938 291.406L255 310.156C252.292 319.115 250.729 328.802 250.312 339.218C250.208 344.218 250.625 349.791 251.562 355.938L254.688 372.344L256.094 367.5L265.156 330.156C268.281 316.407 270.677 303.855 272.344 292.5C273.177 287.188 273.594 281.147 273.594 274.376L272.968 256.094L270.782 228.126C269.845 216.771 269.428 207.396 269.532 200H282.5C282.396 211.979 283.698 225.104 286.406 239.376L289.686 256.876C290.937 263.647 291.562 269.48 291.562 274.376C291.562 279.48 290.885 284.48 289.532 289.376C288.281 294.271 286.406 298.853 283.906 303.124C277.759 315.624 272.551 329.271 268.282 344.064C264.531 356.98 261.354 371.25 258.75 386.874C257.813 391.874 257.396 396.249 257.5 400ZM200 323.594V239.532L201.562 248.282L202.968 257.188L207.656 285.156L208.126 288.282L208.594 292.968C209.635 303.803 206.771 314.011 200 323.594ZM329.22 200H345.624C345.104 209.688 345.209 217.657 345.938 223.906L347.658 232.968L350.158 242.032L357.344 269.376L364.064 296.718L365.156 302.032L365.468 307.344L360.782 294.532C358.906 289.844 356.875 285.729 354.688 282.188L346.408 268.908L337.812 255.782C336.249 253.178 334.999 250.105 334.062 246.562C333.333 244.062 332.708 240.781 332.188 236.718C330.521 224.843 329.531 212.604 329.218 200" fill="black"/>
<path d="M202 0H200V2H202V0Z" fill="black"/>
<path d="M400 40.468V123.75C391.041 133.958 384.219 145.833 379.532 159.374C375.052 172.395 372.969 185.937 373.282 200H366.406V190.938C366.406 187.395 366.666 184.374 367.186 181.874L368.438 175.156L369.844 168.594L374.374 153.282C376.146 147.655 378.021 142.759 380 138.594C381.041 136.302 382.916 133.333 385.624 129.688L391.406 121.094L393.126 115.938L393.75 110.468C393.958 103.801 393.593 94.9993 392.656 84.062L387.968 42.188C386.197 25.4173 385.156 11.3547 384.844 0H398.438C398.334 8.22933 398.386 15 398.594 20.312C398.802 27.708 399.271 34.4267 400 40.468ZM400 139.532V180.468C399.375 183.281 398.906 186.511 398.594 190.156L398.126 200H385L384.844 182.812C384.844 175.937 385.209 170.261 385.938 165.782C386.563 161.719 388.49 157.188 391.718 152.188L400 139.532ZM358.438 200H351.094L351.874 183.28L353.75 166.562C355.105 157.291 356.355 150.104 357.5 145C359.271 137.187 361.511 130.311 364.22 124.374L369.22 112.344L372.344 99.688L373.438 89.688C373.542 85.9373 373.073 82.708 372.032 80L358.908 41.876C356.407 33.7507 354.583 26.8753 353.438 21.25C351.875 13.646 351.094 6.56267 351.094 0H358.438C358.542 11.3547 360.157 22.7087 363.282 34.062C366.406 45.1047 370.885 55.626 376.718 65.626L372.658 43.594L368.906 21.562L367.186 10.938L366.252 0H373.284L373.752 9.062L374.846 18.126L379.846 50.626L384.69 83.282C386.043 94.1153 386.147 104.532 385.002 114.532L383.752 121.092C383.023 123.489 381.981 125.469 380.628 127.032L376.878 130.938C375.419 132.501 374.325 133.959 373.596 135.312C371.409 138.959 369.483 144.167 367.816 150.938L362.97 167.032C361.095 171.719 359.845 177.135 359.22 183.282C358.7 187.449 358.44 193.021 358.44 200H358.438ZM345.628 200H329.06C326.247 186.771 325.101 174.219 325.624 162.344C326.144 155.781 327.341 150.313 329.216 145.938L335.156 130.938C337.029 125.313 338.175 120.053 338.592 115.158C339.008 111.511 338.748 107.969 337.812 104.532C336.873 100.989 335.31 97.76 333.122 94.844C329.998 90.6773 326.145 86.4587 321.562 82.188L319.686 87.188L317.966 92.5C314.842 101.563 311.561 109.531 308.122 116.406C303.955 124.739 299.269 131.979 294.062 138.126C292.082 141.146 290.363 144.687 288.904 148.75C287.863 151.875 286.873 155.729 285.936 160.312C283.645 171.771 282.5 185 282.5 200H269.532L270.156 175.468C270.676 166.511 271.769 158.334 273.436 150.938C275.729 141.146 278.959 133.541 283.124 128.124L292.5 118.124C295.833 114.167 298.437 109.583 300.312 104.374C302.083 99.4793 303.073 94.3233 303.282 88.906C303.49 82.0313 302.917 73.698 301.562 63.906L297.812 39.22C296.041 24.428 295.417 11.3547 295.94 0H316.096C315.263 16.2507 316.513 30.9907 319.846 44.22C323.075 56.5107 328.752 67.344 336.876 76.72L346.876 87.188C350.939 91.4587 353.855 95.3127 355.626 98.75C359.169 105.313 359.794 113.49 357.502 123.282C356.147 129.427 353.543 136.667 349.69 145C348.127 148.437 346.929 152.344 346.096 156.72C345.367 160.053 344.846 164.115 344.534 168.906C344.013 178.594 344.377 188.959 345.626 200H345.628ZM316.096 200H295.938V178.906C296.354 170.99 297.499 164.063 299.374 158.126C305.103 141.25 311.875 126.041 319.688 112.5L323.282 106.406L327.5 100.782C329.167 107.031 328.437 114.739 325.312 123.906C317.812 146.51 314.739 171.875 316.092 200H316.096ZM257.5 200H235.938L236.406 188.438L237.344 176.874L242.5 131.72L247.344 86.564C248.907 70.5227 247.657 55.9913 243.594 42.97C241.302 47.0327 239.323 52.0327 237.656 57.97L233.594 73.596C232.969 75.888 232.604 78.7007 232.5 82.034L232.656 90.47L231.562 112.658L227.968 133.596C225.989 143.281 224.74 150.26 224.22 154.532C223.7 158.177 223.492 162.448 223.596 167.344L224.064 180.156L224.844 190.156C225.157 193.907 225.627 197.188 226.252 200H211.562V162.5L211.406 150.468C205.886 159.219 202.084 168.959 200 179.688V138.908C207.813 124.948 212.761 109.843 214.844 93.594C216.511 81.4073 216.563 65.834 215 46.874L212.812 23.44C212.084 14.272 211.667 6.45867 211.562 0H226.25L229.062 22.656L231.25 45.312C232.917 42.0827 234.115 38.0727 234.844 33.282L236.094 20.782L236.25 10.468L235.938 0H257.658C257.761 3.95867 258.229 8.594 259.062 13.906L261.406 27.5L264.686 49.688C265.521 57.9173 265.625 65.3653 265 72.032C264.271 77.7613 262.917 84.2193 260.938 91.406L255 110.156C252.292 119.115 250.729 128.802 250.312 139.218C250.208 144.218 250.625 149.791 251.562 155.938L254.688 172.344L256.094 167.5L265.156 130.156C268.281 116.407 270.677 103.855 272.344 92.5C273.177 87.188 273.594 81.1467 273.594 74.376L272.968 56.094L270.782 28.126C269.845 16.7713 269.428 7.396 269.532 0H282.5C282.396 11.9787 283.698 25.104 286.406 39.376L289.686 56.876C290.937 63.6467 291.562 69.48 291.562 74.376C291.562 79.48 290.885 84.48 289.532 89.376C288.281 94.2707 286.406 98.8533 283.906 103.124C277.759 115.624 272.551 129.271 268.282 144.064C264.531 156.98 261.354 171.25 258.75 186.874C257.813 191.874 257.396 196.249 257.5 200ZM200 123.594V39.532L201.562 48.282L202.968 57.188L207.656 85.156L208.126 88.282L208.594 92.968C209.635 103.803 206.771 114.011 200 123.594ZM329.22 0H345.624C345.104 9.688 345.209 17.6567 345.938 23.906L347.658 32.968L350.158 42.032L357.344 69.376L364.064 96.718L365.156 102.032L365.468 107.344L360.782 94.532C358.906 89.844 356.875 85.7293 354.688 82.188L346.408 68.908L337.812 55.782C336.249 53.178 334.999 50.1047 334.062 46.562C333.333 44.062 332.708 40.7807 332.188 36.718C330.521 24.8433 329.531 12.604 329.218 0" fill="black"/>
<path d="M2 200H0V202H2V200Z" fill="black"/>
<path d="M200 240.468V323.75C191.041 333.958 184.219 345.833 179.532 359.374C175.052 372.395 172.969 385.937 173.282 400H166.406V390.938C166.406 387.395 166.666 384.374 167.186 381.874L168.438 375.156L169.844 368.594L174.374 353.282C176.146 347.655 178.021 342.759 180 338.594C181.041 336.302 182.916 333.333 185.624 329.688L191.406 321.094L193.126 315.938L193.75 310.468C193.958 303.801 193.593 294.999 192.656 284.062L187.968 242.188C186.197 225.417 185.156 211.355 184.844 200H198.438C198.334 208.229 198.386 215 198.594 220.312C198.802 227.708 199.271 234.427 200 240.468ZM200 339.532V380.468C199.375 383.281 198.906 386.511 198.594 390.156L198.126 400H185L184.844 382.812C184.844 375.937 185.209 370.261 185.938 365.782C186.563 361.719 188.49 357.188 191.718 352.188L200 339.532ZM151.094 400L151.874 383.28L153.75 366.562C155.105 357.291 156.355 350.104 157.5 345C159.271 337.187 161.511 330.311 164.22 324.374L169.22 312.344L172.344 299.688L173.438 289.688C173.542 285.937 173.073 282.708 172.032 280L158.908 241.876C156.407 233.751 154.583 226.875 153.438 221.25C151.875 213.646 151.094 206.563 151.094 200H158.438C158.542 211.355 160.157 222.709 163.282 234.062C166.406 245.105 170.885 255.626 176.718 265.626L172.658 243.594L168.906 221.562L167.186 210.938L166.252 200H173.284L173.752 209.062L174.846 218.126L179.846 250.626L184.69 283.282C186.043 294.115 186.147 304.532 185.002 314.532L183.752 321.092C183.023 323.489 181.981 325.469 180.628 327.032L176.878 330.938C175.419 332.501 174.325 333.959 173.596 335.312C171.409 338.959 169.483 344.167 167.816 350.938L162.97 367.032C161.095 371.719 159.845 377.135 159.22 383.282C158.7 387.449 158.44 393.021 158.44 400H151.094ZM145.628 400H129.06C126.247 386.771 125.101 374.219 125.624 362.344C126.144 355.781 127.341 350.313 129.216 345.938L135.156 330.938C137.029 325.313 138.175 320.053 138.592 315.158C139.008 311.511 138.748 307.969 137.812 304.532C136.873 300.989 135.31 297.76 133.122 294.844C129.998 290.677 126.145 286.459 121.562 282.188L119.686 287.188L117.966 292.5C114.842 301.563 111.561 309.531 108.122 316.406C103.955 324.739 99.2687 331.979 94.062 338.126C92.082 341.146 90.3627 344.687 88.904 348.75C87.8627 351.875 86.8733 355.729 85.936 360.312C83.6453 371.771 82.5 385 82.5 400H69.532L70.156 375.468C70.676 366.511 71.7693 358.334 73.436 350.938C75.7293 341.146 78.9587 333.541 83.124 328.124L92.5 318.124C95.8333 314.167 98.4373 309.583 100.312 304.374C102.083 299.479 103.073 294.323 103.282 288.906C103.49 282.031 102.917 273.698 101.562 263.906L97.812 239.22C96.0413 224.428 95.4173 211.355 95.94 200H116.096C115.263 216.251 116.513 230.991 119.846 244.22C123.075 256.511 128.752 267.344 136.876 276.72L146.876 287.188C150.939 291.459 153.855 295.313 155.626 298.75C159.169 305.313 159.794 313.49 157.502 323.282C156.147 329.427 153.543 336.667 149.69 345C148.127 348.437 146.929 352.344 146.096 356.72C145.367 360.053 144.846 364.115 144.534 368.906C144.013 378.594 144.377 388.959 145.626 400H145.628ZM116.096 400H95.938V378.906C96.354 370.99 97.4993 364.063 99.374 358.126C105.103 341.25 111.875 326.041 119.688 312.5L123.282 306.406L127.5 300.782C129.167 307.031 128.437 314.739 125.312 323.906C117.812 346.51 114.739 371.875 116.092 400H116.096ZM57.5 400H35.938L36.406 388.438L37.344 376.874L42.5 331.72L47.344 286.564C48.9067 270.523 47.6567 255.991 43.594 242.97C41.302 247.033 39.3227 252.033 37.656 257.97L33.594 273.596C32.9687 275.888 32.604 278.701 32.5 282.034L32.656 290.47L31.562 312.658L27.968 333.596C25.9893 343.281 24.74 350.26 24.22 354.532C23.7 358.177 23.492 362.448 23.596 367.344L24.064 380.156L24.844 390.156C25.1573 393.907 25.6267 397.188 26.252 400H11.562V362.5L11.406 350.468C5.886 359.219 2.084 368.959 0 379.688V338.908C7.81333 324.948 12.7613 309.843 14.844 293.594C16.5107 281.407 16.5627 265.834 15 246.874L12.812 223.44C12.084 214.272 11.6673 206.459 11.562 200H26.25L29.062 222.656L31.25 245.312C32.9167 242.083 34.1147 238.073 34.844 233.282L36.094 220.782L36.25 210.468L35.938 200H57.658C57.7607 203.959 58.2287 208.594 59.062 213.906L61.406 227.5L64.686 249.688C65.5207 257.917 65.6253 265.365 65 272.032C64.2707 277.761 62.9167 284.219 60.938 291.406L55 310.156C52.292 319.115 50.7293 328.802 50.312 339.218C50.208 344.218 50.6247 349.791 51.562 355.938L54.688 372.344L56.094 367.5L65.156 330.156C68.2813 316.407 70.6773 303.855 72.344 292.5C73.1773 287.188 73.594 281.147 73.594 274.376L72.968 256.094L70.782 228.126C69.8447 216.771 69.428 207.396 69.532 200H82.5C82.396 211.979 83.698 225.104 86.406 239.376L89.686 256.876C90.9367 263.647 91.562 269.48 91.562 274.376C91.562 279.48 90.8853 284.48 89.532 289.376C88.2813 294.271 86.406 298.853 83.906 303.124C77.7593 315.624 72.5513 329.271 68.282 344.064C64.5313 356.98 61.354 371.25 58.75 386.874C57.8127 391.874 57.396 396.249 57.5 400ZM0 323.594V239.532L1.562 248.282L2.968 257.188L7.656 285.156L8.126 288.282L8.594 292.968C9.63533 303.803 6.77067 314.011 0 323.594ZM129.22 200H145.624C145.104 209.688 145.209 217.657 145.938 223.906L147.658 232.968L150.158 242.032L157.344 269.376L164.064 296.718L165.156 302.032L165.468 307.344L160.782 294.532C158.906 289.844 156.875 285.729 154.688 282.188L146.408 268.908L137.812 255.782C136.249 253.178 134.999 250.105 134.062 246.562C133.333 244.062 132.708 240.781 132.188 236.718C130.521 224.843 129.531 212.604 129.218 200" fill="black"/>
<path d="M2 0H0V2H2V0Z" fill="black"/>
<path d="M200 40.468V123.75C191.041 133.958 184.219 145.833 179.532 159.374C175.052 172.395 172.969 185.937 173.282 200H166.406V190.938C166.406 187.395 166.666 184.374 167.186 181.874L168.438 175.156L169.844 168.594L174.374 153.282C176.146 147.655 178.021 142.759 180 138.594C181.041 136.302 182.916 133.333 185.624 129.688L191.406 121.094L193.126 115.938L193.75 110.468C193.958 103.801 193.593 94.9993 192.656 84.062L187.968 42.188C186.197 25.4173 185.156 11.3547 184.844 0H198.438C198.334 8.22933 198.386 15 198.594 20.312C198.802 27.708 199.271 34.4267 200 40.468ZM200 139.532V180.468C199.375 183.281 198.906 186.511 198.594 190.156L198.126 200H185L184.844 182.812C184.844 175.937 185.209 170.261 185.938 165.782C186.563 161.719 188.49 157.188 191.718 152.188L200 139.532ZM158.438 200H151.094L151.874 183.28L153.75 166.562C155.105 157.291 156.355 150.104 157.5 145C159.271 137.187 161.511 130.311 164.22 124.374L169.22 112.344L172.344 99.688L173.438 89.688C173.542 85.9373 173.073 82.708 172.032 80L158.908 41.876C156.407 33.7507 154.583 26.8753 153.438 21.25C151.875 13.646 151.094 6.56267 151.094 0H158.438C158.542 11.3547 160.157 22.7087 163.282 34.062C166.406 45.1047 170.885 55.626 176.718 65.626L172.658 43.594L168.906 21.562L167.186 10.938L166.252 0H173.284L173.752 9.062L174.846 18.126L179.846 50.626L184.69 83.282C186.043 94.1153 186.147 104.532 185.002 114.532L183.752 121.092C183.023 123.489 181.981 125.469 180.628 127.032L176.878 130.938C175.419 132.501 174.325 133.959 173.596 135.312C171.409 138.959 169.483 144.167 167.816 150.938L162.97 167.032C161.095 171.719 159.845 177.135 159.22 183.282C158.7 187.449 158.44 193.021 158.44 200H158.438ZM145.628 200H129.06C126.247 186.771 125.101 174.219 125.624 162.344C126.144 155.781 127.341 150.313 129.216 145.938L135.156 130.938C137.029 125.313 138.175 120.053 138.592 115.158C139.008 111.511 138.748 107.969 137.812 104.532C136.873 100.989 135.31 97.76 133.122 94.844C129.998 90.6773 126.145 86.4587 121.562 82.188L119.686 87.188L117.966 92.5C114.842 101.563 111.561 109.531 108.122 116.406C103.955 124.739 99.2687 131.979 94.062 138.126C92.082 141.146 90.3627 144.687 88.904 148.75C87.8627 151.875 86.8733 155.729 85.936 160.312C83.6453 171.771 82.5 185 82.5 200H69.532L70.156 175.468C70.676 166.511 71.7693 158.334 73.436 150.938C75.7293 141.146 78.9587 133.541 83.124 128.124L92.5 118.124C95.8333 114.167 98.4373 109.583 100.312 104.374C102.083 99.4793 103.073 94.3233 103.282 88.906C103.49 82.0313 102.917 73.698 101.562 63.906L97.812 39.22C96.0413 24.428 95.4173 11.3547 95.94 0H116.096C115.263 16.2507 116.513 30.9907 119.846 44.22C123.075 56.5107 128.752 67.344 136.876 76.72L146.876 87.188C150.939 91.4587 153.855 95.3127 155.626 98.75C159.169 105.313 159.794 113.49 157.502 123.282C156.147 129.427 153.543 136.667 149.69 145C148.127 148.437 146.929 152.344 146.096 156.72C145.367 160.053 144.846 164.115 144.534 168.906C144.013 178.594 144.377 188.959 145.626 200H145.628ZM116.096 200H95.938V178.906C96.354 170.99 97.4993 164.063 99.374 158.126C105.103 141.25 111.875 126.041 119.688 112.5L123.282 106.406L127.5 100.782C129.167 107.031 128.437 114.739 125.312 123.906C117.812 146.51 114.739 171.875 116.092 200H116.096ZM57.5 200H35.938L36.406 188.438L37.344 176.874L42.5 131.72L47.344 86.564C48.9067 70.5227 47.6567 55.9913 43.594 42.97C41.302 47.0327 39.3227 52.0327 37.656 57.97L33.594 73.596C32.9687 75.888 32.604 78.7007 32.5 82.034L32.656 90.47L31.562 112.658L27.968 133.596C25.9893 143.281 24.74 150.26 24.22 154.532C23.7 158.177 23.492 162.448 23.596 167.344L24.064 180.156L24.844 190.156C25.1573 193.907 25.6267 197.188 26.252 200H11.562V162.5L11.406 150.468C5.886 159.219 2.084 168.959 0 179.688V138.908C7.81333 124.948 12.7613 109.843 14.844 93.594C16.5107 81.4073 16.5627 65.834 15 46.874L12.812 23.44C12.084 14.272 11.6673 6.45867 11.562 0H26.25L29.062 22.656L31.25 45.312C32.9167 42.0827 34.1147 38.0727 34.844 33.282L36.094 20.782L36.25 10.468L35.938 0H57.658C57.7607 3.95867 58.2287 8.594 59.062 13.906L61.406 27.5L64.686 49.688C65.5207 57.9173 65.6253 65.3653 65 72.032C64.2707 77.7613 62.9167 84.2193 60.938 91.406L55 110.156C52.292 119.115 50.7293 128.802 50.312 139.218C50.208 144.218 50.6247 149.791 51.562 155.938L54.688 172.344L56.094 167.5L65.156 130.156C68.2813 116.407 70.6773 103.855 72.344 92.5C73.1773 87.188 73.594 81.1467 73.594 74.376L72.968 56.094L70.782 28.126C69.8447 16.7713 69.428 7.396 69.532 0H82.5C82.396 11.9787 83.698 25.104 86.406 39.376L89.686 56.876C90.9367 63.6467 91.562 69.48 91.562 74.376C91.562 79.48 90.8853 84.48 89.532 89.376C88.2813 94.2707 86.406 98.8533 83.906 103.124C77.7593 115.624 72.5513 129.271 68.282 144.064C64.5313 156.98 61.354 171.25 58.75 186.874C57.8127 191.874 57.396 196.249 57.5 200ZM0 123.594V39.532L1.562 48.282L2.968 57.188L7.656 85.156L8.126 88.282L8.594 92.968C9.63533 103.803 6.77067 114.011 0 123.594ZM129.22 0H145.624C145.104 9.688 145.209 17.6567 145.938 23.906L147.658 32.968L150.158 42.032L157.344 69.376L164.064 96.718L165.156 102.032L165.468 107.344L160.782 94.532C158.906 89.844 156.875 85.7293 154.688 82.188L146.408 68.908L137.812 55.782C136.249 53.178 134.999 50.1047 134.062 46.562C133.333 44.062 132.708 40.7807 132.188 36.718C130.521 24.8433 129.531 12.604 129.218 0" fill="black"/>
</svg>
